<?xml version="1.0" standalone="no"?>
<!DOCTYPE svg PUBLIC "-//W3C//DTD SVG 20010904//EN"
 "http://www.w3.org/TR/2001/REC-SVG-20010904/DTD/svg10.dtd">
<svg version="1.0" xmlns="http://www.w3.org/2000/svg"
 width="64.000000pt" height="64.000000pt" viewBox="0 0 64.000000 64.000000"
 preserveAspectRatio="xMidYMid meet">

<g transform="translate(0.000000,64.000000) scale(0.100000,-0.100000)"
fill="#000000" stroke="none">
<path d="M142 415 c-18 -8 -35 -21 -38 -30 -3 -8 -12 -15 -20 -15 -8 0 -14 -4
-14 -10 0 -5 4 -10 9 -10 4 0 6 -11 4 -24 -7 -35 24 -86 62 -102 74 -30 136
12 145 99 5 47 7 52 30 52 23 0 25 -5 30 -52 9 -87 71 -129 145 -99 38 16 69
67 62 102 -2 13 0 24 4 24 5 0 9 5 9 10 0 6 -6 10 -14 10 -8 0 -17 7 -20 15
-9 23 -70 46 -105 39 -16 -4 -37 -14 -46 -24 -14 -15 -21 -17 -41 -8 -17 8
-31 8 -48 0 -19 -8 -27 -7 -42 8 -27 26 -73 32 -112 15z m87 -20 c59 -30 59
-120 -1 -151 -79 -41 -163 52 -112 124 28 41 69 50 113 27z m289 -21 c27 -31
28 -73 2 -107 -61 -77 -181 -9 -148 83 21 62 101 75 146 24z"/>
<path d="M148 369 c-16 -9 -26 -39 -13 -39 7 0 45 38 45 45 0 8 -13 5 -32 -6z"/>
<path d="M210 370 c0 -5 5 -10 11 -10 5 0 7 5 4 10 -3 6 -8 10 -11 10 -2 0 -4
-4 -4 -10z"/>
<path d="M405 360 c-27 -30 -11 -35 20 -6 19 17 23 26 13 26 -8 0 -23 -9 -33
-20z"/>
</g>
</svg>
