<?xml version="1.0" standalone="no"?>
<!DOCTYPE svg PUBLIC "-//W3C//DTD SVG 20010904//EN"
 "http://www.w3.org/TR/2001/REC-SVG-20010904/DTD/svg10.dtd">
<svg version="1.0" xmlns="http://www.w3.org/2000/svg"
 width="69.000000pt" height="90.000000pt" viewBox="0 0 69.000000 90.000000"
 preserveAspectRatio="xMidYMid meet">

<g transform="translate(0.000000,90.000000) scale(0.100000,-0.100000)"
fill="#000000" stroke="none">
<path d="M0 835 c0 -59 2 -66 24 -76 16 -8 30 -8 42 -1 10 5 27 7 38 3 12 -3
48 -5 81 -4 33 1 68 2 78 2 9 0 28 0 42 0 14 1 34 1 45 1 11 0 31 0 45 -1 14
0 32 0 40 0 8 0 26 0 40 0 14 1 35 1 48 1 12 0 49 0 82 -1 33 -1 66 -1 73 0 8
1 12 22 12 71 l0 70 -345 0 -345 0 0 -65z"/>
<path d="M0 514 l0 -232 43 -10 c85 -21 186 18 252 96 22 26 29 45 30 85 1 28
-3 57 -9 64 -6 8 -16 20 -23 27 -6 7 -8 17 -3 22 5 5 2 15 -7 23 -13 12 -14
11 -8 -8 5 -15 2 -21 -10 -21 -10 0 -13 5 -9 12 4 6 3 8 -3 5 -12 -8 -80 10
-88 23 -4 6 7 7 27 3 30 -6 32 -5 19 10 -7 9 -19 17 -25 17 -6 0 -4 -5 4 -10
8 -5 11 -10 5 -10 -5 0 -17 5 -25 10 -11 7 -11 10 -2 10 8 0 10 5 6 12 -5 8
-2 9 12 3 54 -22 81 -16 52 13 -17 17 -33 15 -18 -3 14 -17 3 -20 -20 -5 -13
9 -13 11 0 20 21 13 22 13 50 -14 50 -47 72 -78 67 -97 -3 -10 1 -23 9 -30 9
-7 14 -8 14 -1 0 6 -6 13 -12 15 -8 3 -8 6 -2 6 8 1 7 17 -3 54 -14 53 -10
117 7 117 6 0 10 -8 11 -17 0 -15 2 -15 9 2 6 13 9 15 9 5 1 -13 2 -13 11 0 5
8 12 11 17 7 4 -4 2 -17 -5 -27 -16 -26 -15 -31 3 -24 15 6 21 -16 8 -29 -10
-11 -13 -58 -2 -52 5 4 9 11 9 16 0 10 29 42 69 74 22 18 24 18 18 2 -4 -11
-3 -16 3 -12 6 4 17 0 25 -9 10 -9 11 -17 5 -21 -6 -4 -7 -11 -4 -17 5 -7 1
-9 -9 -5 -9 3 -19 2 -21 -2 -5 -7 10 -8 49 -2 6 1 4 5 -3 10 -11 7 -11 9 1 14
10 4 14 0 13 -11 -3 -19 -47 -44 -81 -46 -13 0 -21 -4 -18 -8 2 -5 -3 -8 -12
-8 -11 0 -15 5 -12 14 4 10 1 13 -9 9 -9 -3 -11 -9 -5 -17 8 -10 -11 -40 -21
-31 -2 2 -4 -4 -4 -15 0 -17 2 -17 22 3 17 17 36 23 78 25 76 3 93 -7 88 -51
-4 -33 -6 -34 -42 -33 -21 0 -34 3 -29 7 6 3 -4 13 -21 21 -23 11 -42 13 -68
7 -25 -5 -39 -4 -45 4 -5 7 -7 2 -3 -13 3 -14 6 -28 6 -32 0 -3 8 -9 17 -11
17 -4 17 -5 1 -6 -22 -1 -22 -4 -4 -39 49 -93 183 -153 284 -126 22 6 22 6 22
234 l0 228 -202 1 c-112 1 -212 1 -223 1 -39 0 -171 2 -218 3 l-47 2 0 -231z
m278 18 c2 -7 7 -10 11 -8 4 3 12 -4 18 -14 11 -16 9 -18 -27 -13 -27 4 -51
-1 -82 -16 -46 -22 -68 -26 -69 -13 0 4 -2 19 -4 34 -2 18 2 31 13 38 23 13
135 7 140 -8z m-73 -210 c-3 -3 -11 0 -18 7 -9 10 -8 11 6 5 10 -3 15 -9 12
-12z"/>
<path d="M320 676 c0 -9 5 -16 10 -16 6 0 10 4 10 9 0 6 -4 13 -10 16 -5 3
-10 -1 -10 -9z"/>
<path d="M456 644 c-9 -24 -7 -29 5 -17 6 6 17 9 24 7 7 -3 16 0 21 7 5 9 2
10 -9 6 -10 -3 -17 -2 -17 3 0 16 -17 11 -24 -6z"/>
<path d="M359 618 c-5 -9 -5 -48 -1 -43 6 6 11 45 5 45 -2 0 -4 -1 -4 -2z"/>
<path d="M350 541 c0 -5 5 -13 10 -16 6 -3 10 -2 10 4 0 5 -4 13 -10 16 -5 3
-10 2 -10 -4z"/>
<path d="M520 493 c0 -1 8 -7 18 -12 13 -7 19 -6 19 2 0 7 -9 13 -19 13 -10 0
-18 -1 -18 -3z"/>
<path d="M346 333 c-10 -63 -7 -125 6 -121 7 3 11 29 9 78 -1 41 -4 76 -5 78
-2 1 -6 -14 -10 -35z"/>
<path d="M269 303 c-13 -16 -12 -17 4 -4 9 7 17 15 17 17 0 8 -8 3 -21 -13z"/>
<path d="M420 306 c0 -2 8 -10 18 -17 15 -13 16 -12 3 4 -13 16 -21 21 -21 13z"/>
<path d="M421 255 c20 -21 41 -36 46 -34 5 2 -11 19 -36 38 l-46 33 36 -37z"/>
<path d="M205 265 c-16 -8 -60 -17 -97 -21 -71 -7 -94 -24 -33 -24 37 0 153
35 170 51 13 13 -4 10 -40 -6z"/>
<path d="M272 256 c-42 -30 -48 -36 -34 -36 7 0 26 13 44 30 39 35 35 38 -10
6z"/>
<path d="M460 275 c0 -2 21 -14 48 -25 52 -24 162 -39 162 -23 0 6 -32 13 -71
17 -39 3 -83 13 -99 21 -30 16 -40 18 -40 10z"/>
<path d="M0 185 c0 -46 5 -60 27 -85 l26 -30 118 0 c113 0 169 -11 169 -33 0
-5 12 -1 28 9 21 14 53 19 152 22 157 6 169 12 170 95 0 57 0 57 -22 43 -16
-10 -52 -15 -118 -15 -52 0 -104 0 -115 0 -16 0 -127 -1 -170 -1 -5 0 -44 0
-85 0 -41 1 -88 0 -104 -1 -21 -1 -37 6 -53 25 l-23 27 0 -56z"/>
</g>
</svg>
