<?xml version="1.0" standalone="no"?>
<!DOCTYPE svg PUBLIC "-//W3C//DTD SVG 20010904//EN"
 "http://www.w3.org/TR/2001/REC-SVG-20010904/DTD/svg10.dtd">
<svg version="1.0" xmlns="http://www.w3.org/2000/svg"
 width="64.000000pt" height="64.000000pt" viewBox="0 0 64.000000 64.000000"
 preserveAspectRatio="xMidYMid meet">

<g transform="translate(0.000000,64.000000) scale(0.100000,-0.100000)"
fill="#000000" stroke="none">
<path d="M30 541 c-6 -12 -10 -102 -10 -225 0 -173 2 -207 16 -220 23 -24 545
-24 568 0 14 13 16 47 16 220 0 123 -4 213 -10 225 -10 18 -24 19 -290 19
-266 0 -280 -1 -290 -19z m250 -1 c0 -5 -8 -25 -17 -45 l-17 -35 -103 0 -103
0 0 33 c0 18 5 38 12 45 15 15 228 17 228 2z m308 -2 c7 -7 12 -27 12 -45 l0
-33 -165 0 c-91 0 -165 2 -165 5 0 3 9 24 20 45 l20 40 133 0 c90 0 137 -4
145 -12z m12 -263 c0 -152 -1 -165 -19 -175 -26 -14 -496 -14 -522 0 -18 10
-19 23 -19 175 l0 165 280 0 280 0 0 -165z"/>
<path d="M87 523 c-13 -12 -7 -41 10 -47 9 -4 23 0 31 8 13 12 13 18 2 30 -13
17 -32 21 -43 9z m33 -23 c0 -5 -4 -10 -10 -10 -5 0 -10 5 -10 10 0 6 5 10 10
10 6 0 10 -4 10 -10z"/>
<path d="M163 514 c-3 -8 2 -23 11 -32 15 -15 17 -15 33 0 13 14 14 20 3 32
-16 20 -39 20 -47 0z m37 -14 c0 -5 -4 -10 -10 -10 -5 0 -10 5 -10 10 0 6 5
10 10 10 6 0 10 -4 10 -10z"/>
<path d="M330 500 c0 -6 47 -10 120 -10 73 0 120 4 120 10 0 6 -47 10 -120 10
-73 0 -120 -4 -120 -10z"/>
<path d="M164 396 c-3 -8 -4 -29 -2 -48 l3 -33 133 -3 c127 -2 134 -2 139 18
8 30 25 24 21 -7 -2 -23 -8 -28 -33 -31 -120 -10 -135 -13 -135 -33 0 -10 -7
-19 -15 -19 -11 0 -15 -12 -15 -48 0 -53 12 -72 47 -72 27 0 43 27 43 75 0 29
-5 38 -20 42 -29 8 -19 28 16 31 16 1 53 5 82 8 l52 5 0 45 c0 36 -3 44 -19
44 -10 0 -21 9 -24 20 -5 19 -14 20 -136 20 -104 0 -133 -3 -137 -14z m256
-36 l0 -30 -120 0 -120 0 0 30 0 30 120 0 120 0 0 -30z m-92 -177 c-2 -31 -7
-39 -25 -41 -21 -3 -23 1 -23 37 0 37 2 41 26 41 23 0 25 -3 22 -37z"/>
</g>
</svg>
